<svg width="135" height="135" viewBox="0 0 135 135" fill="none" xmlns="http://www.w3.org/2000/svg">
<path d="M90.3445 90.3024L63.3867 117.26C60.398 120.249 56.8497 122.621 52.9445 124.239C49.0392 125.856 44.8536 126.689 40.6265 126.689C36.3995 126.689 32.2138 125.856 28.3086 124.239C24.4034 122.621 20.8551 120.249 17.8664 117.26C14.8771 114.272 12.5059 110.723 10.8881 106.818C9.2703 102.913 8.43762 98.7271 8.43762 94.5001C8.43762 90.273 9.2703 86.0874 10.8881 82.1821C12.5059 78.2769 14.8771 74.7286 17.8664 71.7399L44.8242 44.7821L81.2826 55.6876L90.3445 90.3024Z" fill="#FCD53F"/>
<path d="M44.8663 44.8242L71.8241 17.8664C74.8129 14.8772 78.3611 12.5059 82.2664 10.8881C86.1716 9.27033 90.3572 8.43765 94.5843 8.43765C98.8114 8.43765 102.997 9.27033 106.902 10.8881C110.807 12.5059 114.356 14.8772 117.344 17.8664C120.334 20.8551 122.705 24.4034 124.323 28.3086C125.941 32.2138 126.773 36.3995 126.773 40.6266C126.773 44.8536 125.941 49.0393 124.323 52.9445C122.705 56.8497 120.334 60.398 117.344 63.3867L90.3866 90.3445L44.8663 44.8242Z" fill="#F8312F"/>
<path d="M109.688 50.6251C111.925 50.6251 114.071 49.7361 115.654 48.1538C117.236 46.5714 118.125 44.4253 118.125 42.1876C118.125 39.9498 117.236 37.8037 115.654 36.2213C114.071 34.639 111.925 33.7501 109.688 33.7501C107.45 33.7501 105.304 34.639 103.721 36.2213C102.139 37.8037 101.25 39.9498 101.25 42.1876C101.25 44.4253 102.139 46.5714 103.721 48.1538C105.304 49.7361 107.45 50.6251 109.688 50.6251Z" fill="#F4F4F4"/>
</svg>
